<svg xmlns="http://www.w3.org/2000/svg" width="82" height="82" viewBox="0 0 82 82" fill="none">
<path d="M80.5987 8.23816C80.0033 7.59882 79.169 7.23564 78.2953 7.23564H65.5256C65.5459 6.20905 65.556 5.16043 65.556 4.08853C65.556 2.35037 64.147 0.941406 62.4088 0.941406H19.9227C18.1846 0.941406 16.7756 2.35037 16.7756 4.08853C16.7756 5.16043 16.7857 6.20905 16.806 7.23564H4.02993C3.15629 7.23564 2.32198 7.59882 1.72671 8.23816C1.13143 8.8775 0.828519 9.73556 0.890832 10.607C0.908771 10.8586 1.37722 16.8565 5.4101 24.5712C7.74762 29.0431 10.8181 33.2161 14.5358 36.9739C19.0606 41.5474 24.5609 45.5104 30.8851 48.7605C33.7894 52.1996 36.5202 55.4764 38.0185 59.7622L38.0187 64.8783C36.3914 65.3279 34.1726 66.0326 31.9386 67.0281C23.8281 70.6416 22.1259 75.1853 22.1259 78.3607C22.1259 80.0989 23.5348 81.5078 25.273 81.5078H56.7442C58.4823 81.5078 59.8913 80.0989 59.8913 78.3607C59.8913 75.2666 58.223 70.8073 50.2753 67.1345C48.0841 66.1219 45.9079 65.3919 44.3131 64.9222L44.3129 59.5228C45.7902 55.3232 48.4872 52.1436 51.3522 48.8074C59.778 44.4919 66.6796 38.9597 71.8673 32.3591C72.9415 30.9925 72.7042 29.014 71.3377 27.9401C69.9709 26.866 67.9926 27.1033 66.9187 28.4697C65.0286 30.8746 62.8743 33.1246 60.4677 35.2113C63.1089 29.2252 64.6441 22.2521 65.251 13.5299H74.5084C74.3309 14.2169 74.1065 14.9912 73.8239 15.8367C73.2728 17.4852 74.1624 19.2682 75.8108 19.8192C76.1419 19.9299 76.4782 19.9826 76.8089 19.9826C78.1255 19.9824 79.3529 19.1497 79.7934 17.8323C81.1841 13.6721 81.413 10.9085 81.4346 10.607C81.4967 9.73556 81.194 8.87765 80.5987 8.23816ZM11.1416 21.9462C9.36382 18.6092 8.36965 15.6493 7.82032 13.5299H17.0807C17.6891 22.2731 19.2304 29.2581 21.8835 35.254C17.3841 31.3665 13.7906 26.9188 11.1416 21.9462ZM51.5916 75.2134H30.3784C31.7191 74.1107 33.4269 73.2597 34.4157 72.8153C37.1431 71.5894 39.9362 70.8589 41.1516 70.5725C44.3437 71.356 48.9719 73.0962 51.5916 75.2134ZM51.7541 38.1238C50.2514 40.4283 48.534 42.428 46.7157 44.5449C44.7711 46.8089 42.7872 49.1188 41.1079 51.8051C39.4322 49.1251 37.4662 46.7976 35.5389 44.5158C33.7499 42.3978 32.0604 40.3975 30.5778 38.1238C25.6733 30.6032 23.3896 21.2517 23.1013 7.23564H59.2304C58.9421 21.2517 56.6584 30.6032 51.7541 38.1238Z" fill="#0A151B"/>
<path d="M38.019 22.8643V31.6256C38.019 33.3637 39.428 34.7727 41.1662 34.7727C42.9043 34.7727 44.3133 33.3637 44.3133 31.6256V16.8341C44.3133 15.6607 43.6604 14.5845 42.6197 14.0428C41.5786 13.5007 40.3227 13.5831 39.3615 14.2558L34.6408 17.5603C33.2169 18.5568 32.8705 20.5192 33.8672 21.9433C34.811 23.2914 36.6205 23.6736 38.019 22.8643Z" fill="#0A151B"/>
</svg>