<svg width="78" height="78" viewBox="0 0 78 78" fill="none" xmlns="http://www.w3.org/2000/svg">
<path d="M74.1797 53.002C75.8409 53.002 77.1875 51.6554 77.1875 49.9941V18.1113C77.1875 11.4773 71.7903 6.08008 65.1562 6.08008H61.2461V3.07227C61.2461 1.41105 59.8995 0.0644531 58.2383 0.0644531C56.5771 0.0644531 55.2305 1.41105 55.2305 3.07227V6.08008H41.5449V3.07227C41.5449 1.41105 40.1983 0.0644531 38.5371 0.0644531C36.8759 0.0644531 35.5293 1.41105 35.5293 3.07227V6.08008H21.9941V3.07227C21.9941 1.41105 20.6475 0.0644531 18.9863 0.0644531C17.3251 0.0644531 15.9785 1.41105 15.9785 3.07227V6.08008H12.2188C5.58472 6.08008 0.1875 11.4773 0.1875 18.1113V65.0332C0.1875 71.6672 5.58472 77.0645 12.2188 77.0645H65.1562C71.7903 77.0645 77.1875 71.6672 77.1875 65.0332C77.1875 63.372 75.8409 62.0254 74.1797 62.0254C72.5185 62.0254 71.1719 63.372 71.1719 65.0332C71.1719 68.3502 68.4733 71.0488 65.1562 71.0488H12.2188C8.90173 71.0488 6.20312 68.3502 6.20312 65.0332V18.1113C6.20312 14.7943 8.90173 12.0957 12.2188 12.0957H15.9785V15.1035C15.9785 16.7647 17.3251 18.1113 18.9863 18.1113C20.6475 18.1113 21.9941 16.7647 21.9941 15.1035V12.0957H35.5293V15.1035C35.5293 16.7647 36.8759 18.1113 38.5371 18.1113C40.1983 18.1113 41.5449 16.7647 41.5449 15.1035V12.0957H55.2305V15.1035C55.2305 16.7647 56.5771 18.1113 58.2383 18.1113C59.8995 18.1113 61.2461 16.7647 61.2461 15.1035V12.0957H65.1562C68.4733 12.0957 71.1719 14.7943 71.1719 18.1113V49.9941C71.1719 51.6554 72.5185 53.002 74.1797 53.002Z" fill="#0A151B"/>
<path d="M18.9863 34.6543C20.6475 34.6543 21.9941 33.3077 21.9941 31.6465C21.9941 29.9853 20.6475 28.6387 18.9863 28.6387C17.3252 28.6387 15.9785 29.9853 15.9785 31.6465C15.9785 33.3077 17.3252 34.6543 18.9863 34.6543Z" fill="#0A151B"/>
<path d="M45.1543 34.6543C46.8155 34.6543 48.1621 33.3077 48.1621 31.6465C48.1621 29.9853 46.8155 28.6387 45.1543 28.6387C43.4931 28.6387 42.1465 29.9853 42.1465 31.6465C42.1465 33.3077 43.4931 34.6543 45.1543 34.6543Z" fill="#0A151B"/>
<path d="M58.2383 34.6543C59.8995 34.6543 61.2461 33.3077 61.2461 31.6465C61.2461 29.9853 59.8995 28.6387 58.2383 28.6387C56.5771 28.6387 55.2305 29.9853 55.2305 31.6465C55.2305 33.3077 56.5771 34.6543 58.2383 34.6543Z" fill="#0A151B"/>
<path d="M18.9863 47.7383C20.6475 47.7383 21.9941 46.3916 21.9941 44.7305C21.9941 43.0693 20.6475 41.7227 18.9863 41.7227C17.3252 41.7227 15.9785 43.0693 15.9785 44.7305C15.9785 46.3916 17.3252 47.7383 18.9863 47.7383Z" fill="#0A151B"/>
<path d="M18.9863 60.8223C20.6475 60.8223 21.9941 59.4756 21.9941 57.8145C21.9941 56.1533 20.6475 54.8066 18.9863 54.8066C17.3252 54.8066 15.9785 56.1533 15.9785 57.8145C15.9785 59.4756 17.3252 60.8223 18.9863 60.8223Z" fill="#0A151B"/>
<path d="M32.0703 34.6543C33.7315 34.6543 35.0781 33.3077 35.0781 31.6465C35.0781 29.9853 33.7315 28.6387 32.0703 28.6387C30.4091 28.6387 29.0625 29.9853 29.0625 31.6465C29.0625 33.3077 30.4091 34.6543 32.0703 34.6543Z" fill="#0A151B"/>
<path d="M32.0703 47.7383C33.7315 47.7383 35.0781 46.3916 35.0781 44.7305C35.0781 43.0693 33.7315 41.7227 32.0703 41.7227C30.4091 41.7227 29.0625 43.0693 29.0625 44.7305C29.0625 46.3916 30.4091 47.7383 32.0703 47.7383Z" fill="#0A151B"/>
<path d="M32.0703 60.8223C33.7315 60.8223 35.0781 59.4756 35.0781 57.8145C35.0781 56.1533 33.7315 54.8066 32.0703 54.8066C30.4091 54.8066 29.0625 56.1533 29.0625 57.8145C29.0625 59.4756 30.4091 60.8223 32.0703 60.8223Z" fill="#0A151B"/>
<path d="M45.1543 47.7383C46.8155 47.7383 48.1621 46.3916 48.1621 44.7305C48.1621 43.0693 46.8155 41.7227 45.1543 41.7227C43.4931 41.7227 42.1465 43.0693 42.1465 44.7305C42.1465 46.3916 43.4931 47.7383 45.1543 47.7383Z" fill="#0A151B"/>
<path d="M58.2383 47.7383C59.8995 47.7383 61.2461 46.3916 61.2461 44.7305C61.2461 43.0693 59.8995 41.7227 58.2383 41.7227C56.5771 41.7227 55.2305 43.0693 55.2305 44.7305C55.2305 46.3916 56.5771 47.7383 58.2383 47.7383Z" fill="#0A151B"/>
<path d="M45.1543 60.8223C46.8155 60.8223 48.1621 59.4756 48.1621 57.8145C48.1621 56.1533 46.8155 54.8066 45.1543 54.8066C43.4931 54.8066 42.1465 56.1533 42.1465 57.8145C42.1465 59.4756 43.4931 60.8223 45.1543 60.8223Z" fill="#0A151B"/>
</svg>
