<svg xmlns="http://www.w3.org/2000/svg" width="39" height="39" viewBox="0 0 39 39" fill="none">
<path d="M20.4808 21.4456H4.84119C4.52568 21.4456 4.2699 21.7013 4.2699 22.0168C4.2699 22.3324 4.52568 22.5881 4.84119 22.5881H20.4807C20.7963 22.5881 21.052 22.3323 21.052 22.0168C21.0521 21.7013 20.7963 21.4456 20.4808 21.4456Z" fill="#9620CE"/>
<path d="M20.4808 25.0507H4.84119C4.52568 25.0507 4.2699 25.3064 4.2699 25.6219C4.2699 25.9375 4.52568 26.1932 4.84119 26.1932H20.4807C20.7963 26.1932 21.052 25.9375 21.052 25.6219C21.0521 25.3064 20.7963 25.0507 20.4808 25.0507Z" fill="#9620CE"/>
<path d="M12.661 28.656H4.84119C4.52568 28.656 4.2699 28.9118 4.2699 29.2273C4.2699 29.5429 4.52568 29.7986 4.84119 29.7986H12.661C12.9765 29.7986 13.2323 29.5429 13.2323 29.2273C13.2323 28.9117 12.9765 28.656 12.661 28.656Z" fill="#9620CE"/>
<path d="M35.5109 14.2351H19.8713C19.5558 14.2351 19.3 14.4908 19.3 14.8064C19.3 15.122 19.5558 15.3777 19.8713 15.3777H35.5109C35.8265 15.3777 36.0822 15.122 36.0822 14.8064C36.0822 14.4908 35.8265 14.2351 35.5109 14.2351Z" fill="#9620CE"/>
<path d="M35.5108 17.8402H27.691C27.3755 17.8402 27.1198 18.0959 27.1198 18.4115C27.1198 18.7271 27.3755 18.9828 27.691 18.9828H35.5108C35.8264 18.9828 36.0821 18.7271 36.0821 18.4115C36.0821 18.0959 35.8264 17.8402 35.5108 17.8402Z" fill="#9620CE"/>
<path d="M3.53711 4.3623H14.9631C15.2786 4.3623 15.5344 4.1066 15.5344 3.79102C15.5344 3.47544 15.2786 3.21973 14.9631 3.21973H3.53711C3.22161 3.21973 2.96582 3.47544 2.96582 3.79102C2.96582 4.1066 3.22161 4.3623 3.53711 4.3623Z" fill="#9620CE"/>
<path d="M3.53711 7.21851H9.25007C9.56558 7.21851 9.82136 6.9628 9.82136 6.64722C9.82136 6.33164 9.56558 6.07593 9.25007 6.07593H3.53711C3.22161 6.07593 2.96582 6.33164 2.96582 6.64722C2.96582 6.9628 3.22161 7.21851 3.53711 7.21851Z" fill="#9620CE"/>
<path d="M21.6348 17.1862H3.68725C1.65415 17.1862 0 18.8402 0 20.8734V30.1434C0 32.1765 1.65407 33.8306 3.68725 33.8306H3.81606L3.07772 37.9301C3.00795 38.3176 3.19389 38.7036 3.54039 38.8906C3.89116 39.0798 4.31521 39.0176 4.59712 38.7499L9.65242 33.9511C9.73431 33.8734 9.84148 33.8306 9.95437 33.8306H21.6347C23.6679 33.8306 25.322 32.1765 25.322 30.1434V20.8734C25.3221 18.8402 23.668 17.1862 21.6348 17.1862ZM24.1795 30.1434C24.1795 31.5465 23.0379 32.688 21.6348 32.688H9.95444C9.54753 32.688 9.16096 32.8423 8.86579 33.1224L4.32892 37.4291L4.96999 33.8698C5.08097 33.2536 4.6071 32.688 3.98204 32.688H3.68725C2.28417 32.688 1.14265 31.5464 1.14265 30.1433V20.8734C1.14265 19.4703 2.28417 18.3287 3.68725 18.3287H21.6348C23.0379 18.3287 24.1795 19.4703 24.1795 20.8734V30.1434Z" fill="#9620CE"/>
<path d="M2.24111 10.1621H6.50217C6.51093 10.1621 6.51908 10.1668 6.52342 10.1743L8.34339 13.3164C8.53291 13.6437 8.87195 13.8391 9.25014 13.8391C9.62841 13.8391 9.96738 13.6437 10.157 13.3164L11.9769 10.1743C11.9813 10.1667 11.9894 10.1621 11.9982 10.1621H16.2592C17.4787 10.1621 18.4707 9.16995 18.4707 7.95044V2.21157C18.4707 0.992138 17.4786 0 16.2591 0H2.24111C1.02168 0 0.029541 0.992138 0.029541 2.21157V2.45296C0.029541 2.76854 0.285326 3.02425 0.60083 3.02425C0.916334 3.02425 1.17212 2.76854 1.17212 2.45296V2.21157C1.17219 1.62208 1.6517 1.14258 2.24111 1.14258H16.2591C16.8485 1.14258 17.3281 1.62208 17.3281 2.2115V7.95036C17.3281 8.53978 16.8485 9.01936 16.2591 9.01936H11.9981C11.5831 9.01936 11.1961 9.24246 10.9881 9.60154L9.25007 12.6021L7.51213 9.60154C7.3041 9.24246 6.91715 9.01936 6.50209 9.01936H2.24104C1.65162 9.01936 1.17212 8.53978 1.17212 7.95036V5.12355C1.17212 4.80797 0.916334 4.55226 0.60083 4.55226C0.285326 4.55226 0.029541 4.80797 0.029541 5.12355V7.95044C0.029541 9.16995 1.02168 10.1621 2.24111 10.1621Z" fill="#9620CE"/>
<path d="M35.6596 10.7214H19.7227C17.882 10.7214 16.3845 12.219 16.3845 14.0596V15.0868C16.3845 15.4024 16.6403 15.6581 16.9558 15.6581C17.2713 15.6581 17.5271 15.4024 17.5271 15.0868V14.0596C17.5271 12.8489 18.512 11.864 19.7226 11.864H35.6596C36.8703 11.864 37.8552 12.8489 37.8552 14.0596V22.1832C37.8552 23.3939 36.8703 24.3788 35.6596 24.3788H35.3978C34.8018 24.3788 34.3521 24.918 34.4575 25.5035L34.9921 28.4718L31.1053 24.7822C30.8313 24.5221 30.4724 24.3788 30.0945 24.3788H27.4215C27.1059 24.3788 26.8502 24.6345 26.8502 24.9501C26.8502 25.2657 27.1059 25.5214 27.4215 25.5214H30.0945C30.1783 25.5214 30.2579 25.5532 30.3186 25.6108L34.8074 29.872C35.0804 30.1311 35.4876 30.1865 35.8204 30.0068C36.1525 29.8275 36.3306 29.4576 36.2636 29.0863L35.6216 25.5215H35.6595C37.5002 25.5215 38.9977 24.0239 38.9977 22.1833V14.0596C38.9977 12.2189 37.5003 10.7214 35.6596 10.7214Z" fill="#9620CE"/>
</svg>