<svg xmlns="http://www.w3.org/2000/svg" width="69" height="78" viewBox="0 0 69 78" fill="none">
  <path fill-rule="evenodd" clip-rule="evenodd" d="M11.4229 61.2871C11.4229 59.6259 12.7695 58.2793 14.4307 58.2793H58.2211C63.6619 58.2793 68.1332 62.6475 68.1332 68.1104C68.1332 73.5733 63.6619 77.9414 58.2211 77.9414H14.4307C12.7695 77.9414 11.4229 76.5948 11.4229 74.9336C11.4229 73.2724 12.7695 71.9258 14.4307 71.9258C16.6162 71.9258 18.3272 70.1842 18.3272 68.1104C18.3272 66.0366 16.6162 64.2949 14.4307 64.2949C12.7695 64.2949 11.4229 62.9483 11.4229 61.2871ZM23.5699 64.2949C24.0673 65.4659 24.3428 66.7544 24.3428 68.1104C24.3428 69.4663 24.0673 70.7548 23.5699 71.9258H58.2211C60.4067 71.9258 62.1176 70.1842 62.1176 68.1104C62.1176 66.0366 60.4067 64.2949 58.2211 64.2949H23.5699Z" fill="#0A151B"/>
  <path fill-rule="evenodd" clip-rule="evenodd" d="M20.374 20.3799C20.374 18.7187 21.7207 17.3721 23.3818 17.3721H39.7265C41.3877 17.3721 42.7343 18.7187 42.7343 20.3799C42.7343 22.0411 41.3877 23.3877 39.7265 23.3877H23.3818C21.7207 23.3877 20.374 22.0411 20.374 20.3799Z" fill="#0A151B"/>
  <path fill-rule="evenodd" clip-rule="evenodd" d="M17.3662 33.6787C17.3662 32.0175 18.7129 30.6709 20.374 30.6709H42.7343C44.3955 30.6709 45.7422 32.0175 45.7422 33.6787C45.7422 35.3399 44.3955 36.6865 42.7343 36.6865H20.374C18.7129 36.6865 17.3662 35.3399 17.3662 33.6787Z" fill="#0A151B"/>
  <path fill-rule="evenodd" clip-rule="evenodd" d="M17.3662 46.9766C17.3662 45.3154 18.7129 43.9688 20.374 43.9688H42.7343C44.3955 43.9688 45.7422 45.3154 45.7422 46.9766C45.7422 48.6377 44.3955 49.9844 42.7343 49.9844H20.374C18.7129 49.9844 17.3662 48.6377 17.3662 46.9766Z" fill="#0A151B"/>
  <path fill-rule="evenodd" clip-rule="evenodd" d="M0.6875 12.9727C0.6875 6.32801 6.0741 0.941406 12.7188 0.941406H48.6423C55.2869 0.941406 60.6735 6.32801 60.6735 12.9727V46.2482C60.6735 47.9094 59.3269 49.2561 57.6657 49.2561C56.0046 49.2561 54.6579 47.9094 54.6579 46.2482V12.9727C54.6579 9.65036 51.9646 6.95705 48.6423 6.95705H12.7188C9.39645 6.95705 6.70314 9.65036 6.70314 12.9727V65.7537C6.70314 69.1626 9.46665 71.926 12.8755 71.926H46.8464C48.5076 71.926 49.8543 73.2727 49.8543 74.9338C49.8543 76.595 48.5076 77.9417 46.8464 77.9417H12.8755C6.14437 77.9417 0.6875 72.485 0.6875 65.7537V12.9727Z" fill="#0A151B"/>
</svg>