<svg width="46" height="45" viewBox="0 0 46 45" fill="none" xmlns="http://www.w3.org/2000/svg">
<path d="M34.2654 0H10.8556C10.4855 0 10.1855 0.300077 10.1855 0.670129V13.6422C10.1855 14.0122 10.4855 14.3122 10.8556 14.3122C11.2258 14.3122 11.5257 14.0122 11.5257 13.6421V1.34026H33.5952V13.6421C33.5952 14.0122 33.8952 14.3122 34.2654 14.3122C34.6355 14.3122 34.9355 14.0122 34.9355 13.6421V0.670129C34.9355 0.300077 34.6355 0 34.2654 0Z" fill="#9620CE"/>
<path d="M34.1998 29.9323H35.1108C35.481 29.9323 35.781 29.6322 35.781 29.2622C35.781 28.8921 35.481 28.592 35.1108 28.592H10.0103C9.6402 28.592 9.34021 28.8921 9.34021 29.2622C9.34021 29.6322 9.6402 29.9323 10.0103 29.9323H10.9213L9.79548 40.4314C9.75609 40.7994 10.0223 41.1296 10.3903 41.1691C10.7603 41.209 11.0885 40.9422 11.128 40.5743L12.2692 29.9324H32.8518L34.3239 43.6597H10.7972L10.8882 42.8112C10.9277 42.4433 10.6614 42.113 10.2934 42.0735C9.92644 42.0342 9.59517 42.3003 9.55568 42.6683L9.38516 44.2584C9.3648 44.4474 9.42587 44.6363 9.55295 44.7778C9.68012 44.9193 9.86131 45 10.0514 45H35.0699C35.26 45 35.4413 44.9192 35.5684 44.7778C35.6955 44.6364 35.7565 44.4476 35.7362 44.2584L34.1998 29.9323Z" fill="#9620CE"/>
<path d="M37.1249 15.0675H4.36553C1.95839 15.0675 0 17.026 0 19.4331V34.3706C0 36.7778 1.95839 38.7363 4.36553 38.7363H8.48889C8.85903 38.7363 9.15902 38.4362 9.15902 38.0661C9.15902 37.6961 8.85903 37.396 8.48898 37.396H4.36553C2.69735 37.396 1.34026 36.0388 1.34026 34.3706V19.4331C1.34026 17.7649 2.69744 16.4078 4.36553 16.4078H37.1249C37.4951 16.4078 37.7951 16.1077 37.7951 15.7376C37.7951 15.3676 37.4951 15.0675 37.1249 15.0675Z" fill="#9620CE"/>
<path d="M40.7552 15.0675H39.3587C38.9885 15.0675 38.6885 15.3676 38.6885 15.7376C38.6885 16.1077 38.9885 16.4078 39.3587 16.4078H40.7552C42.4239 16.4078 43.7814 17.7649 43.7814 19.4331V34.3706C43.7814 36.0388 42.4238 37.396 40.7552 37.396H36.6318C36.2617 37.396 35.9617 37.6961 35.9617 38.0661C35.9617 38.4362 36.2617 38.7363 36.6318 38.7363H40.7552C43.1628 38.7363 45.1217 36.7779 45.1217 34.3706V19.4331C45.1217 17.026 43.1628 15.0675 40.7552 15.0675Z" fill="#9620CE"/>
<path d="M37.2143 25.4321H7.90749C7.53735 25.4321 7.23737 25.7322 7.23737 26.1023V33.2503C7.23737 33.6203 7.53735 33.9204 7.90749 33.9204H9.0054C9.37554 33.9204 9.67553 33.6203 9.67553 33.2503C9.67553 32.8802 9.37554 32.5801 9.0054 32.5801H8.57762V26.7724H36.5442V32.5801H36.1165C35.7463 32.5801 35.4463 32.8802 35.4463 33.2503C35.4463 33.6203 35.7463 33.9204 36.1165 33.9204H37.2144C37.5845 33.9204 37.8845 33.6203 37.8845 33.2503V26.1023C37.8844 25.7321 37.5845 25.4321 37.2143 25.4321Z" fill="#9620CE"/>
<path d="M5.76297 17.8374C4.1125 17.8374 2.76978 19.1801 2.76978 20.8306C2.76978 22.4811 4.1125 23.8238 5.76297 23.8238C7.41344 23.8238 8.75617 22.4811 8.75617 20.8306C8.75617 19.1801 7.41344 17.8374 5.76297 17.8374ZM5.76297 22.4835C4.85155 22.4835 4.11003 21.742 4.11003 20.8306C4.11003 19.9192 4.85155 19.1777 5.76297 19.1777C6.6744 19.1777 7.41591 19.9192 7.41591 20.8306C7.41591 21.742 6.6744 22.4835 5.76297 22.4835Z" fill="#9620CE"/>
<path d="M12.7325 17.8374C11.082 17.8374 9.73926 19.1801 9.73926 20.8306C9.73926 22.4811 11.082 23.8238 12.7325 23.8238C14.3829 23.8238 15.7256 22.4811 15.7256 20.8306C15.7257 19.1801 14.3829 17.8374 12.7325 17.8374ZM12.7325 22.4835C11.821 22.4835 11.0795 21.742 11.0795 20.8306C11.0795 19.9192 11.821 19.1777 12.7325 19.1777C13.6439 19.1777 14.3854 19.9192 14.3854 20.8306C14.3854 21.742 13.644 22.4835 12.7325 22.4835Z" fill="#9620CE"/>
<path d="M31.2724 39.7283H13.8492C13.4791 39.7283 13.1791 40.0283 13.1791 40.3984C13.1791 40.7684 13.4791 41.0685 13.8492 41.0685H31.2725C31.6426 41.0685 31.9426 40.7684 31.9426 40.3984C31.9426 40.0283 31.6426 39.7283 31.2724 39.7283Z" fill="#9620CE"/>
<path d="M30.8482 36.6902H14.2734C13.9033 36.6902 13.6033 36.9903 13.6033 37.3603C13.6033 37.7304 13.9033 38.0304 14.2734 38.0304H30.8481C31.2182 38.0304 31.5182 37.7304 31.5182 37.3603C31.5182 36.9903 31.2183 36.6902 30.8482 36.6902Z" fill="#9620CE"/>
<path d="M30.4907 33.6523H14.6308C14.2607 33.6523 13.9607 33.9524 13.9607 34.3225C13.9607 34.6925 14.2607 34.9926 14.6308 34.9926H30.4907C30.8608 34.9926 31.1608 34.6925 31.1608 34.3225C31.1608 33.9524 30.8609 33.6523 30.4907 33.6523Z" fill="#9620CE"/>
</svg>
