<svg xmlns="http://www.w3.org/2000/svg" width="93" height="93" viewBox="0 0 93 93" fill="none">
  <path d="M18.5344 68.927C17.0316 69.3952 15.4313 68.554 14.9601 67.0481L6.64389 40.4723C5.22958 35.9527 7.55452 31.6282 12.172 30.1897C13.0102 29.9286 13.8697 29.8169 14.7249 29.8466C14.4063 26.1088 16.6831 22.5226 20.377 21.3718C21.3208 21.0778 22.2793 20.9675 23.2145 21.0197C23.2417 17.5818 25.4608 14.4016 28.9093 13.3273C32.1335 12.3229 35.5241 13.4422 37.5722 15.8903C38.3559 15.2454 39.2726 14.7371 40.2999 14.417C44.5761 13.0849 49.1459 15.487 50.4867 19.7719L59.7637 49.418C60.197 50.8025 61.7073 52.4767 63.2209 52.1566L72.1026 44.1563C72.1726 44.0934 72.2457 44.0338 72.3217 43.978C73.0826 43.4188 73.9285 42.9919 74.836 42.7091C79.3373 41.3069 84.1476 43.8355 85.559 48.3459C86.2524 50.5615 86.0318 52.907 84.9381 54.9503C84.8683 55.0808 84.7883 55.2057 84.6989 55.3238L83.0064 57.5619C82.9709 57.6089 82.9341 57.6548 82.8958 57.6994L72.3312 70.0024C67.4197 75.7219 61.0197 79.9301 53.8227 82.1722L37.8946 87.1343C31.407 89.1554 24.3538 86.8321 20.3435 81.3528C19.4115 80.0793 19.6851 78.293 20.9547 77.3627C22.2246 76.433 24.0091 76.7109 24.9412 77.9844C27.508 81.4916 32.0279 82.9771 36.1882 81.6811L52.1162 76.719C58.2935 74.7945 63.787 71.1825 68.0025 66.2734L78.5096 54.0372L79.9919 52.0769C80.2842 51.4365 80.3294 50.7205 80.1168 50.0413C79.6464 48.5378 78.0429 47.695 76.5425 48.1624C76.276 48.2454 76.0264 48.3646 75.7993 48.5173L66.9164 56.5184C66.8626 56.5669 66.8069 56.6133 66.7496 56.6575C66.122 57.1413 65.4895 57.4658 64.8182 57.6464C60.0041 58.9462 55.6213 55.2673 54.3214 51.1133L45.0445 21.4674C44.6446 20.1894 43.2817 19.473 42.0063 19.8703C40.7309 20.2676 40.0187 21.6305 40.4186 22.9085L47.0738 44.1761C47.545 45.6821 46.7088 47.2823 45.2059 47.7505C43.7031 48.2187 42.1028 47.3775 41.6316 45.8716L33.6539 20.3776C33.254 19.0997 31.8911 18.3832 30.6157 18.7806C29.3403 19.1779 28.6281 20.5408 29.028 21.8188L37.0057 47.3127C37.4769 48.8186 36.6407 50.4188 35.1378 50.887C33.6349 51.3552 32.0347 50.514 31.5635 49.0081L25.1397 28.4798C24.7298 27.1699 23.3588 26.4277 22.0834 26.825C20.808 27.2224 20.1039 28.611 20.5138 29.9209L26.9376 50.4492C27.4088 51.9551 26.5726 53.5554 25.0697 54.0236C23.5668 54.4918 21.9666 53.6506 21.4954 52.1447L16.906 37.4786C16.5313 36.281 15.1958 35.2327 13.8785 35.6431C13.1187 35.8798 11.4234 36.659 12.0862 38.777L20.4023 65.3526C20.8735 66.8585 20.0373 68.4588 18.5344 68.927Z" fill="#0A151B"/>
</svg>