<svg xmlns="http://www.w3.org/2000/svg" width="80" height="80" viewBox="0 0 80 80" fill="none">
<g id="Group">
<g id="Group 39">
<path id="Vector" d="M73.0674 47.7126C72.4232 46.1195 70.6094 45.3495 69.0161 45.994C67.4227 46.6381 66.6532 48.4518 67.2973 50.0452L70.9622 59.1108L60.0775 54.3126C59.2896 53.9653 58.3929 53.9599 57.601 54.2978C53.8811 55.885 49.8962 56.6897 45.7568 56.6897C29.0974 56.6897 17.9063 43.6458 17.9063 31.463C17.9063 17.553 30.4 6.23629 45.7568 6.23629C61.1137 6.23629 73.6074 17.553 73.6074 31.463C73.6074 32.5482 73.5063 33.8477 73.3303 35.028C73.0767 36.7278 74.2491 38.3113 75.9489 38.5649C77.6489 38.8191 79.2323 37.6461 79.4858 35.9463C79.7084 34.4542 79.831 32.8619 79.831 31.463C79.831 23.0098 76.2515 15.0781 69.7514 9.12917C63.3284 3.25036 54.8069 0.0126953 45.7568 0.0126953C36.7068 0.0126953 28.1855 3.25036 21.7623 9.12901C15.9538 14.4452 12.4798 21.3453 11.8059 28.7854C4.49989 33.6237 0.169049 41.3765 0.169049 49.7275C0.169049 54.9441 1.81254 59.8937 4.94099 64.1533L0.395899 75.3966C-0.0788054 76.5706 0.205457 77.9154 1.11488 78.797C1.70752 79.3717 2.48843 79.6748 3.28147 79.6748C3.70514 79.6747 4.13239 79.5883 4.53599 79.4103L17.6412 73.6333C20.9378 74.8604 24.4225 75.4817 28.0195 75.4817C28.0973 75.4817 28.1736 75.4756 28.25 75.47C33.4525 75.4306 38.5103 74.0622 42.8907 71.5014C46.8144 69.2074 50.0419 66.056 52.3047 62.3345C54.5139 61.9377 56.6732 61.3384 58.769 60.5373L75.4639 67.8967C75.8677 68.0745 76.2948 68.1612 76.7184 68.1612C77.5115 68.161 78.2925 67.8579 78.8852 67.2833C79.7946 66.4018 80.0789 65.0572 79.6042 63.8829L73.0674 47.7126ZM28.0198 69.2501C27.9773 69.2501 27.9359 69.2548 27.8937 69.2565C24.7163 69.2403 21.658 68.6158 18.8019 67.3972C18.0101 67.0591 17.1134 67.0646 16.3255 67.412L9.03813 70.6243L11.3889 64.8091C11.8235 63.7342 11.6242 62.5066 10.8721 61.6242C7.94154 58.1861 6.39264 54.0725 6.39264 49.7275C6.39264 44.7547 8.48454 40.043 12.1446 36.4703C13.2842 42.6823 16.4994 48.6245 21.3496 53.2925C27.3851 59.1012 35.3684 62.4663 43.9889 62.8714C39.9417 66.8553 34.15 69.2501 28.0198 69.2501Z" fill="black"/>
<path id="Vector_2" d="M45.6015 34.7089C47.3201 34.7089 48.7133 33.3157 48.7133 31.5971C48.7133 29.8785 47.3201 28.4854 45.6015 28.4854C43.8829 28.4854 42.4897 29.8785 42.4897 31.5971C42.4897 33.3157 43.8829 34.7089 45.6015 34.7089Z" fill="black"/>
<path id="Vector_3" d="M58.0483 34.7089C59.7669 34.7089 61.1601 33.3157 61.1601 31.5971C61.1601 29.8785 59.7669 28.4854 58.0483 28.4854C56.3297 28.4854 54.9365 29.8785 54.9365 31.5971C54.9365 33.3157 56.3297 34.7089 58.0483 34.7089Z" fill="black"/>
<path id="Vector_4" d="M33.1543 34.7089C34.8729 34.7089 36.2661 33.3157 36.2661 31.5971C36.2661 29.8785 34.8729 28.4854 33.1543 28.4854C31.4357 28.4854 30.0425 29.8785 30.0425 31.5971C30.0425 33.3157 31.4357 34.7089 33.1543 34.7089Z" fill="black"/>
</g>
</g>
</svg>