<svg xmlns="http://www.w3.org/2000/svg" width="186" height="185" viewBox="0 0 186 185" fill="none">
  <g clip-path="url(#clip0_215_319)">
    <path d="M19.8756 79.8405V97.858C19.8756 98.5466 20.331 99.2315 21.2342 99.7583C23.0519 100.816 26.01 100.816 27.839 99.7583C28.761 99.2277 29.2202 98.5278 29.2164 97.8317V79.8142C29.2164 80.5104 28.7573 81.2103 27.839 81.7409C26.01 82.7983 23.0519 82.7983 21.2342 81.7409C20.331 81.2178 19.8793 80.5292 19.8756 79.8405Z" fill="#4C5671"/>
    <path d="M21.2526 77.9139C23.0816 76.8565 26.0397 76.8565 27.8574 77.9139C29.6751 78.9713 29.6676 80.6835 27.8348 81.7409C26.0058 82.7983 23.0477 82.7983 21.23 81.7409C19.4123 80.6835 19.4236 78.9713 21.2526 77.9139Z" fill="#B4BED7"/>
    <path d="M21.6481 38.7329V79.4641C21.6481 79.8893 21.9304 80.3183 22.4911 80.6419C23.6202 81.2967 25.453 81.2967 26.5895 80.6419C27.1615 80.3108 27.4476 79.878 27.4438 79.4453V38.7141C27.4438 39.1469 27.1615 39.5796 26.5895 39.9108C25.453 40.5655 23.6202 40.5655 22.4911 39.9108C21.9304 39.5834 21.6519 39.1582 21.6481 38.7329Z" fill="#4C5671"/>
    <path d="M22.502 37.5362C23.6386 36.8815 25.4714 36.8815 26.6004 37.5362C27.7294 38.191 27.7219 39.256 26.5854 39.9107C25.4488 40.5655 23.616 40.5655 22.487 39.9107C21.358 39.256 21.3655 38.191 22.502 37.5362Z" fill="#B4BED7"/>
    <path d="M84.0458 42.7934V60.8109C84.0458 61.4995 84.5011 62.1844 85.4043 62.7112C87.2221 63.7686 90.1801 63.7686 92.0092 62.7112C92.9312 62.1806 93.3903 61.4807 93.3866 60.7845V42.7671C93.3866 43.4633 92.9274 44.1632 92.0092 44.6938C90.1801 45.7512 87.2221 45.7512 85.4043 44.6938C84.5011 44.1707 84.0495 43.4821 84.0458 42.7934Z" fill="#4C5671"/>
    <path d="M85.4228 40.8705C87.2518 39.813 90.2098 39.813 92.0276 40.8705C93.8453 41.9279 93.8378 43.6401 92.005 44.6975C90.176 45.7549 87.2179 45.7549 85.4002 44.6975C83.5825 43.6401 83.5937 41.9279 85.4228 40.8705Z" fill="#B4BED7"/>
    <path d="M85.8183 1.68595V42.4171C85.8183 42.8423 86.1006 43.2713 86.6613 43.595C87.7903 44.2497 89.6231 44.2497 90.7597 43.595C91.3317 43.2638 91.6177 42.8311 91.614 42.3983V1.6709C91.614 2.10365 91.3317 2.5364 90.7597 2.86755C89.6231 3.52232 87.7903 3.52232 86.6613 2.86755C86.1006 2.54016 85.8221 2.11494 85.8183 1.68971V1.68595Z" fill="#4C5671"/>
    <path d="M86.6722 0.49303C87.8088 -0.161739 89.6416 -0.161739 90.7706 0.49303C91.8996 1.1478 91.8921 2.21274 90.7555 2.86751C89.619 3.52228 87.7862 3.52228 86.6572 2.86751C85.5281 2.21274 85.5357 1.1478 86.6722 0.49303Z" fill="#B4BED7"/>
    <path d="M0.347122 137.479V143.33C0.38475 146.488 2.46593 149.645 6.62828 152.087L56.9415 181.33C65.3038 186.173 78.9764 186.173 87.4102 181.33L178.952 128.474C183.186 126.032 185.304 122.803 185.304 119.612L185.267 113.764C185.267 116.959 183.148 120.188 178.914 122.626L87.4064 175.482C78.9726 180.325 65.3001 180.325 56.9377 175.482L6.59064 146.235C2.42828 143.797 0.347122 140.64 0.347122 137.479Z" fill="#B4BED7"/>
    <path d="M6.69568 128.579C-1.73439 133.445 -1.77956 141.355 6.59782 146.224L56.9261 175.471C65.3035 180.34 78.961 180.34 87.3911 175.471L178.921 122.63C187.351 117.764 187.397 109.851 179.019 104.985L128.691 75.7387C120.314 70.8693 106.656 70.8693 98.226 75.7387L6.69191 128.579H6.69568Z" fill="#E3E7F0"/>
    <path d="M1.0584 116.677V136.083C1.09227 139.218 3.15839 142.348 7.29063 144.772L57.2162 173.792C65.5146 178.598 79.0817 178.598 87.4478 173.792L178.289 121.339C182.493 118.916 184.593 115.714 184.593 112.545L184.559 93.1428C184.559 96.3113 182.459 99.5174 178.256 101.937L87.4478 154.386C79.078 159.192 65.5108 159.192 57.2162 154.386L7.25676 125.366C3.12453 122.946 1.06216 119.812 1.06216 116.677H1.0584Z" fill="#4C5671"/>
    <path d="M0.347122 110.49V116.342C0.38475 119.499 2.46593 122.656 6.62828 125.098L56.9415 154.341C65.3038 159.184 78.9764 159.184 87.4102 154.341L178.952 101.485C183.186 99.0432 185.304 95.8145 185.304 92.6234L185.267 86.7756C185.267 89.9705 183.148 93.1991 178.914 95.6376L87.4064 148.493C78.9726 153.336 65.3001 153.336 56.9377 148.493L6.59064 119.247C2.42828 116.808 0.347122 113.651 0.347122 110.49Z" fill="#B4BED7"/>
    <path d="M6.69568 101.591C-1.73439 106.456 -1.77956 114.366 6.59782 119.236L56.9261 148.482C65.3035 153.351 78.961 153.351 87.3911 148.482L178.921 95.6415C187.351 90.7758 187.397 82.8622 179.019 77.9965L128.691 48.7502C120.314 43.8808 106.656 43.8808 98.226 48.7502L6.69191 101.591H6.69568Z" fill="#E3E7F0"/>
    <path d="M94.9634 158.48L94.9747 162.368L87.5194 166.669L87.5081 162.782L94.9634 158.48Z" fill="#FFDD94"/>
    <path d="M106.419 151.869L106.431 155.756L98.9752 160.057L98.9639 156.17L106.419 151.869Z" fill="#FFDD94"/>
    <path d="M117.856 145.269L117.868 149.156L110.412 153.457L110.401 149.57L117.856 145.269Z" fill="#FFDD94"/>
    <path d="M129.293 138.664L129.305 142.552L121.868 146.845L121.857 142.958L129.293 138.664Z" fill="#FE91AB"/>
    <path d="M140.749 132.053L140.76 135.94L133.305 140.241L133.294 136.354L140.749 132.053Z" fill="#FE91AB"/>
    <path d="M170.785 110.626C173.228 109.215 175.215 110.347 175.222 113.155C175.23 115.962 173.258 119.379 170.815 120.79C168.373 122.201 166.386 121.068 166.378 118.261C166.371 115.454 168.343 112.037 170.785 110.626Z" fill="#272E3A"/>
    <path d="M173.277 112.684C172.753 112.38 172.027 112.425 171.225 112.884C169.634 113.802 168.346 116.03 168.354 117.859C168.354 118.765 168.678 119.405 169.193 119.706L172.102 121.396C171.587 121.095 171.263 120.455 171.263 119.548C171.259 117.719 172.543 115.492 174.135 114.573C174.936 114.111 175.663 114.069 176.186 114.374L173.277 112.684Z" fill="#96D696"/>
    <path d="M174.135 114.577C175.727 113.659 177.021 114.397 177.025 116.225C177.029 118.054 175.745 120.282 174.153 121.2C172.561 122.118 171.267 121.381 171.263 119.552C171.259 117.723 172.543 115.495 174.135 114.577Z" fill="#77CB77"/>
    <path d="M60.0501 105.196C53.1028 109.305 53.0652 115.906 60.0915 119.988C67.1178 124.071 78.6 124.071 85.6753 119.988L136.922 90.4034C144.038 86.2942 144.072 79.6449 137.046 75.562C129.805 71.3549 117.74 71.4264 110.657 76.0248C102.027 73.5788 89.5629 75.1894 84.836 81.2818C75.8979 79.1782 65.3791 80.3749 58.4732 84.3637C48.9442 89.8653 48.8916 98.8138 58.3603 104.315C58.9098 104.635 59.4969 104.929 60.0464 105.196H60.0501Z" fill="#7BB1FF"/>
    <path d="M96.3446 98.4488C94.5834 99.4648 94.5758 101.102 96.3258 102.118C98.057 103.122 100.898 103.134 102.66 102.118C104.421 101.102 104.391 99.4648 102.66 98.4601C100.91 97.444 98.1059 97.4328 96.3446 98.4488Z" fill="white"/>
    <path d="M73.4668 99.5438C73.4818 100.018 74.148 100.406 74.9496 100.406C75.5592 100.406 76.4587 100.135 76.4625 99.5325C76.5377 90.9452 89.5328 86.9564 98.279 86.9376C98.9151 86.9376 99.7694 86.693 99.7731 86.0759C99.7957 85.6017 99.1296 85.2141 98.2903 85.2141C88.3624 85.2141 73.5232 89.7561 73.4705 99.5438H73.4668Z" fill="white"/>
    <path d="M80.1808 99.9615C80.1808 100.447 80.8431 100.834 81.6824 100.834C82.2695 100.827 83.1689 100.556 83.1764 99.9728C83.2103 93.7412 92.6114 90.8398 98.9828 90.8474C99.5699 90.8474 100.492 90.5614 100.496 89.9743C100.496 89.4889 99.8334 89.1013 98.9941 89.1013C91.3581 89.1013 80.2447 92.5633 80.1808 99.9615Z" fill="white"/>
    <path d="M86.8909 100.383C86.906 100.857 87.5721 101.245 88.3925 101.256C88.9909 101.249 89.8791 100.97 89.9054 100.383C89.9506 96.6727 95.8177 94.746 99.6828 94.7385C100.3 94.7197 101.139 94.4826 101.196 93.8655C101.181 93.3913 100.515 93.0037 99.6941 92.9924C94.5269 93.0263 86.9699 95.3067 86.8909 100.383Z" fill="white"/>
  </g>
  <defs>
    <clipPath id="clip0_215_319">
      <rect width="184.961" height="184.961" fill="white" transform="matrix(-1 0 0 1 185.304 0)"/>
    </clipPath>
  </defs>
</svg>