<svg width="300" height="300" viewBox="0 0 314 348" fill="none" xmlns="http://www.w3.org/2000/svg">
<path d="M313.313 264.783V276.786C312.885 277.141 194.941 345.722 194.941 345.722C191.869 347.508 187.583 348.08 183.583 347.725L183.654 335.795C187.654 336.221 191.869 335.51 194.941 333.724C194.941 333.724 312.885 265.142 313.313 264.783Z" fill="#BFBFBF"/>
<path d="M303.694 274.687V278.173L294.409 283.584V280.099L303.694 274.687Z" fill="#787677"/>
<path d="M292.427 281.26V284.745L283.141 290.157V286.671L292.427 281.26Z" fill="#787677"/>
<path d="M4.70649 227.87L176.406 333.709C178.445 334.877 180.999 335.446 183.619 335.691V347.731C180.988 347.489 178.429 346.916 176.406 345.741L4.70649 239.903C2.12259 238.428 0.867432 236.507 0.867432 234.589V222.553C0.867432 224.474 2.12259 226.396 4.70649 227.87Z" fill="#B0AFB0"/>
<path d="M307.282 257.558C312.42 260.524 312.447 265.314 307.342 268.28L194.927 333.716C189.822 336.682 181.554 336.682 176.416 333.716L4.7039 227.912C-0.386747 224.973 -0.413893 220.184 4.69033 217.217L110.373 155.3C115.477 152.334 123.745 152.334 128.836 155.273L307.282 257.558Z" fill="#E8E8E8"/>
<path d="M110.101 7.39517C112.168 6.21288 115.047 6.36075 118.222 8.20599L291.907 108.505C298.256 112.196 303.35 120.981 303.276 128.291L302.907 270.842L313.316 264.79L313.685 122.236C313.685 114.929 308.665 106.144 302.316 102.453L128.557 2.15379C125.456 0.307841 122.577 0.160679 120.51 1.3394L110.101 7.39517Z" fill="#787677"/>
<path d="M291.924 108.517C298.24 112.163 303.315 121.005 303.294 128.263L302.889 270.867L106.338 157.388L106.742 14.784C106.763 7.52592 111.87 4.56197 118.186 8.20815L291.924 108.517Z" fill="#4F4D4D"/>
<path d="M295.911 128.243C295.925 123.593 292.263 117.238 288.233 114.911C288.233 114.911 114.25 14.4639 114.134 14.4082C114.134 14.5275 113.73 153.133 113.73 153.133L295.543 258.102L295.911 128.243Z" fill="#D05C8B"/>
<path d="M295.912 128.243C295.926 123.593 292.264 117.238 288.234 114.911C288.234 114.911 114.251 14.4639 114.135 14.4082C114.135 14.5275 295.544 258.101 295.544 258.101L295.912 128.243Z" fill="#A02E79"/>
<path d="M123.088 177.529L123.084 178.77L111.752 185.356L111.756 184.115L123.088 177.529Z" fill="#686868"/>
<path d="M111.755 184.115L111.752 185.356L100.377 178.789L100.38 177.548L111.755 184.115Z" fill="#4F4D4D"/>
<path d="M123.087 177.529L111.755 184.115L100.38 177.547L111.713 170.961L123.087 177.529Z" fill="#929393"/>
<path d="M137.314 185.742L137.31 186.984L125.978 193.57L125.981 192.328L137.314 185.742Z" fill="#686868"/>
<path d="M125.98 192.328L125.978 193.57L114.603 187.002L114.606 185.761L125.98 192.328Z" fill="#4F4D4D"/>
<path d="M137.313 185.742L125.98 192.328L114.606 185.761L125.939 179.176L137.313 185.742Z" fill="#929393"/>
<path d="M151.539 193.956L151.536 195.197L140.203 201.783L140.206 200.542L151.539 193.956Z" fill="#686868"/>
<path d="M140.206 200.542L140.203 201.783L128.796 195.197L128.8 193.956L140.206 200.542Z" fill="#4F4D4D"/>
<path d="M151.539 193.956L140.206 200.542L128.8 193.956L140.132 187.37L151.539 193.956Z" fill="#929393"/>
<path d="M165.733 202.15L165.73 203.391L154.397 209.977L154.401 208.736L165.733 202.15Z" fill="#686868"/>
<path d="M154.4 208.736L154.397 209.977L143.023 203.411L143.026 202.169L154.4 208.736Z" fill="#4F4D4D"/>
<path d="M165.734 202.15L154.401 208.736L143.027 202.169L154.359 195.583L165.734 202.15Z" fill="#929393"/>
<path d="M179.96 210.364L179.956 211.606L168.624 218.191L168.628 216.95L179.96 210.364Z" fill="#686868"/>
<path d="M168.628 216.95L168.624 218.191L157.25 211.624L157.253 210.383L168.628 216.95Z" fill="#4F4D4D"/>
<path d="M179.959 210.364L168.626 216.95L157.252 210.382L168.584 203.797L179.959 210.364Z" fill="#929393"/>
<path d="M194.152 218.558L194.148 219.799L182.816 226.385L182.82 225.144L194.152 218.558Z" fill="#686868"/>
<path d="M182.82 225.144L182.817 226.386L171.442 219.818L171.445 218.577L182.82 225.144Z" fill="#4F4D4D"/>
<path d="M194.152 218.558L182.82 225.144L171.445 218.577L182.778 211.991L194.152 218.558Z" fill="#929393"/>
<path d="M208.379 226.772L208.376 228.013L197.043 234.599L197.046 233.357L208.379 226.772Z" fill="#686868"/>
<path d="M197.046 233.357L197.042 234.599L185.668 228.032L185.671 226.791L197.046 233.357Z" fill="#4F4D4D"/>
<path d="M208.379 226.773L197.046 233.358L185.671 226.791L197.004 220.205L208.379 226.773Z" fill="#929393"/>
<path d="M236.798 243.18L236.795 244.421L225.494 250.989L225.497 249.747L236.798 243.18Z" fill="#686868"/>
<path d="M225.497 249.747L225.494 250.989L199.893 236.208L199.897 234.967L225.497 249.747Z" fill="#4F4D4D"/>
<path d="M236.798 243.18L225.497 249.747L199.897 234.967L211.197 228.399L236.798 243.18Z" fill="#929393"/>
<path d="M251.025 251.393L251.021 252.635L239.689 259.221L239.692 257.979L251.025 251.393Z" fill="#686868"/>
<path d="M239.692 257.979L239.688 259.221L228.281 252.635L228.284 251.393L239.692 257.979Z" fill="#4F4D4D"/>
<path d="M251.023 251.393L239.691 257.979L228.284 251.393L239.617 244.807L251.023 251.393Z" fill="#929393"/>
<path d="M265.219 259.588L265.215 260.829L253.882 267.415L253.886 266.174L265.219 259.588Z" fill="#686868"/>
<path d="M253.885 266.174L253.881 267.416L242.507 260.848L242.511 259.607L253.885 266.174Z" fill="#4F4D4D"/>
<path d="M265.217 259.588L253.885 266.174L242.51 259.607L253.843 253.021L265.217 259.588Z" fill="#929393"/>
<path d="M279.445 267.802L279.441 269.042L268.108 275.628L268.112 274.387L279.445 267.802Z" fill="#686868"/>
<path d="M268.11 274.388L268.107 275.628L256.733 269.061L256.736 267.82L268.11 274.388Z" fill="#4F4D4D"/>
<path d="M279.444 267.802L268.111 274.387L256.737 267.82L268.069 261.234L279.444 267.802Z" fill="#929393"/>
<path d="M108.341 186.097L108.337 187.339L97.0365 193.906L97.0401 192.665L108.341 186.097Z" fill="#686868"/>
<path d="M97.04 192.665L97.0364 193.906L85.6614 187.339L85.665 186.098L97.04 192.665Z" fill="#4F4D4D"/>
<path d="M108.341 186.097L97.0403 192.665L85.6653 186.098L96.9667 179.531L108.341 186.097Z" fill="#929393"/>
<path d="M122.568 194.312L122.565 195.552L111.263 202.12L111.267 200.879L122.568 194.312Z" fill="#686868"/>
<path d="M111.266 200.879L111.262 202.12L99.8882 195.553L99.8918 194.312L111.266 200.879Z" fill="#4F4D4D"/>
<path d="M122.567 194.312L111.266 200.879L99.8914 194.312L111.193 187.744L122.567 194.312Z" fill="#929393"/>
<path d="M136.794 202.525L136.79 203.766L125.489 210.334L125.492 209.093L136.794 202.525Z" fill="#686868"/>
<path d="M125.493 209.093L125.489 210.334L114.083 203.748L114.086 202.507L125.493 209.093Z" fill="#4F4D4D"/>
<path d="M136.794 202.525L125.492 209.093L114.086 202.507L125.386 195.939L136.794 202.525Z" fill="#929393"/>
<path d="M150.988 210.719L150.985 211.961L139.684 218.528L139.687 217.287L150.988 210.719Z" fill="#686868"/>
<path d="M139.687 217.287L139.683 218.528L128.309 211.961L128.312 210.72L139.687 217.287Z" fill="#4F4D4D"/>
<path d="M150.988 210.719L139.687 217.286L128.312 210.72L139.613 204.153L150.988 210.719Z" fill="#929393"/>
<path d="M165.213 218.933L165.21 220.174L153.909 226.742L153.913 225.501L165.213 218.933Z" fill="#686868"/>
<path d="M153.912 225.501L153.908 226.742L142.534 220.175L142.538 218.933L153.912 225.501Z" fill="#4F4D4D"/>
<path d="M165.213 218.933L153.913 225.501L142.538 218.933L153.839 212.366L165.213 218.933Z" fill="#929393"/>
<path d="M179.408 227.128L179.404 228.369L168.103 234.936L168.106 233.695L179.408 227.128Z" fill="#686868"/>
<path d="M168.107 233.695L168.103 234.936L156.729 228.369L156.733 227.128L168.107 233.695Z" fill="#4F4D4D"/>
<path d="M179.409 227.128L168.107 233.695L156.733 227.128L168.034 220.561L179.409 227.128Z" fill="#929393"/>
<path d="M193.635 235.341L193.631 236.581L182.33 243.149L182.333 241.908L193.635 235.341Z" fill="#686868"/>
<path d="M182.333 241.908L182.33 243.149L170.955 236.582L170.959 235.341L182.333 241.908Z" fill="#4F4D4D"/>
<path d="M193.634 235.341L182.332 241.908L170.958 235.342L182.26 228.774L193.634 235.341Z" fill="#929393"/>
<path d="M207.827 243.536L207.823 244.777L196.522 251.345L196.526 250.103L207.827 243.536Z" fill="#686868"/>
<path d="M196.525 250.103L196.521 251.345L185.147 244.778L185.151 243.537L196.525 250.103Z" fill="#4F4D4D"/>
<path d="M207.827 243.536L196.526 250.103L185.152 243.536L196.452 236.969L207.827 243.536Z" fill="#929393"/>
<path d="M222.052 251.749L222.049 252.991L210.748 259.558L210.752 258.317L222.052 251.749Z" fill="#686868"/>
<path d="M210.752 258.317L210.748 259.558L199.374 252.991L199.377 251.75L210.752 258.317Z" fill="#4F4D4D"/>
<path d="M222.052 251.749L210.751 258.317L199.377 251.75L210.678 245.183L222.052 251.749Z" fill="#929393"/>
<path d="M236.279 259.963L236.275 261.204L224.974 267.771L224.978 266.53L236.279 259.963Z" fill="#686868"/>
<path d="M224.978 266.53L224.975 267.771L213.568 261.185L213.571 259.944L224.978 266.53Z" fill="#4F4D4D"/>
<path d="M236.279 259.963L224.978 266.53L213.571 259.944L224.873 253.377L236.279 259.963Z" fill="#929393"/>
<path d="M250.473 268.157L250.469 269.398L239.168 275.965L239.171 274.724L250.473 268.157Z" fill="#686868"/>
<path d="M239.171 274.724L239.168 275.965L227.793 269.399L227.797 268.157L239.171 274.724Z" fill="#4F4D4D"/>
<path d="M250.473 268.157L239.172 274.725L227.798 268.157L239.099 261.59L250.473 268.157Z" fill="#929393"/>
<path d="M264.7 276.371L264.696 277.611L253.395 284.179L253.398 282.938L264.7 276.371Z" fill="#686868"/>
<path d="M253.397 282.938L253.394 284.179L242.019 277.612L242.023 276.371L253.397 282.938Z" fill="#4F4D4D"/>
<path d="M264.699 276.37L253.398 282.938L242.023 276.371L253.325 269.803L264.699 276.37Z" fill="#929393"/>
<path d="M93.6288 194.686L93.6252 195.926L67.5804 211.062L67.584 209.821L93.6288 194.686Z" fill="#686868"/>
<path d="M67.5837 209.821L67.5802 211.062L56.1737 204.476L56.1773 203.235L67.5837 209.821Z" fill="#4F4D4D"/>
<path d="M93.6288 194.685L67.5841 209.821L56.1776 203.235L82.2224 188.1L93.6288 194.685Z" fill="#929393"/>
<path d="M107.823 202.881L107.82 204.121L96.5206 210.688L96.5242 209.447L107.823 202.881Z" fill="#686868"/>
<path d="M96.524 209.447L96.5204 210.688L85.1461 204.121L85.1497 202.88L96.524 209.447Z" fill="#4F4D4D"/>
<path d="M107.822 202.881L96.5229 209.447L85.1486 202.88L96.4479 196.313L107.822 202.881Z" fill="#929393"/>
<path d="M122.048 211.094L122.045 212.335L110.745 218.902L110.749 217.66L122.048 211.094Z" fill="#686868"/>
<path d="M110.749 217.66L110.746 218.902L99.3385 212.316L99.3421 211.074L110.749 217.66Z" fill="#4F4D4D"/>
<path d="M122.048 211.094L110.749 217.66L99.3419 211.075L110.641 204.508L122.048 211.094Z" fill="#929393"/>
<path d="M136.242 219.288L136.239 220.53L124.94 227.096L124.943 225.855L136.242 219.288Z" fill="#686868"/>
<path d="M124.942 225.855L124.938 227.096L113.564 220.529L113.568 219.288L124.942 225.855Z" fill="#4F4D4D"/>
<path d="M136.242 219.288L124.942 225.855L113.568 219.288L124.867 212.722L136.242 219.288Z" fill="#929393"/>
<path d="M150.468 227.502L150.464 228.743L139.165 235.31L139.169 234.069L150.468 227.502Z" fill="#686868"/>
<path d="M139.169 234.068L139.166 235.309L127.791 228.742L127.795 227.501L139.169 234.068Z" fill="#4F4D4D"/>
<path d="M150.468 227.502L139.168 234.069L127.794 227.501L139.093 220.935L150.468 227.502Z" fill="#929393"/>
<path d="M164.662 235.697L164.659 236.938L153.359 243.505L153.363 242.264L164.662 235.697Z" fill="#686868"/>
<path d="M153.362 242.264L153.359 243.504L141.984 236.938L141.988 235.696L153.362 242.264Z" fill="#4F4D4D"/>
<path d="M164.661 235.697L153.361 242.264L141.987 235.697L153.286 229.13L164.661 235.697Z" fill="#929393"/>
<path d="M178.888 243.91L178.885 245.152L167.585 251.718L167.589 250.477L178.888 243.91Z" fill="#686868"/>
<path d="M167.588 250.477L167.585 251.718L156.21 245.152L156.214 243.91L167.588 250.477Z" fill="#4F4D4D"/>
<path d="M178.889 243.91L167.589 250.477L156.215 243.91L167.514 237.344L178.889 243.91Z" fill="#929393"/>
<path d="M193.081 252.105L193.077 253.347L181.778 259.913L181.781 258.672L193.081 252.105Z" fill="#686868"/>
<path d="M181.781 258.672L181.777 259.913L170.403 253.346L170.406 252.104L181.781 258.672Z" fill="#4F4D4D"/>
<path d="M193.08 252.105L181.781 258.672L170.407 252.104L181.706 245.539L193.08 252.105Z" fill="#929393"/>
<path d="M93.0772 211.45L93.0736 212.692L81.7743 219.258L81.7779 218.017L93.0772 211.45Z" fill="#686868"/>
<path d="M81.7778 218.017L81.7742 219.258L70.3999 212.691L70.4035 211.45L81.7778 218.017Z" fill="#4F4D4D"/>
<path d="M93.0781 211.449L81.7788 218.016L70.4045 211.449L81.7038 204.883L93.0781 211.449Z" fill="#929393"/>
<path d="M107.301 219.663L107.298 220.904L95.9989 227.471L96.0018 226.229L107.301 219.663Z" fill="#686868"/>
<path d="M96.0023 226.229L95.9995 227.471L84.5923 220.885L84.5959 219.644L96.0023 226.229Z" fill="#4F4D4D"/>
<path d="M107.302 219.663L96.0025 226.229L84.5961 219.644L95.8954 213.077L107.302 219.663Z" fill="#929393"/>
<path d="M164.078 252.479L164.074 253.72L152.807 260.269L152.81 259.027L164.078 252.479Z" fill="#686868"/>
<path d="M152.81 259.027L152.806 260.269L98.8184 229.098L98.8219 227.857L152.81 259.027Z" fill="#4F4D4D"/>
<path d="M164.078 252.479L152.81 259.027L98.8225 227.858L110.09 221.31L164.078 252.479Z" fill="#929393"/>
<path d="M178.336 260.674L178.332 261.915L167.033 268.481L167.036 267.24L178.336 260.674Z" fill="#686868"/>
<path d="M167.037 267.24L167.033 268.481L155.659 261.914L155.662 260.673L167.037 267.24Z" fill="#4F4D4D"/>
<path d="M178.336 260.674L167.037 267.24L155.663 260.674L166.962 254.107L178.336 260.674Z" fill="#929393"/>
<path d="M207.306 260.319L207.303 261.559L181.258 276.695L181.262 275.454L207.306 260.319Z" fill="#686868"/>
<path d="M181.262 275.454L181.258 276.695L169.852 270.109L169.855 268.868L181.262 275.454Z" fill="#4F4D4D"/>
<path d="M207.306 260.319L181.261 275.454L169.855 268.868L195.9 253.733L207.306 260.319Z" fill="#929393"/>
<path d="M221.533 268.532L221.53 269.773L210.23 276.339L210.234 275.098L221.533 268.532Z" fill="#686868"/>
<path d="M210.234 275.098L210.23 276.338L198.824 269.753L198.827 268.512L210.234 275.098Z" fill="#4F4D4D"/>
<path d="M221.534 268.531L210.235 275.098L198.828 268.512L210.127 261.946L221.534 268.531Z" fill="#929393"/>
<path d="M235.727 276.727L235.723 277.968L224.424 284.534L224.428 283.293L235.727 276.727Z" fill="#686868"/>
<path d="M224.428 283.293L224.424 284.534L213.049 277.968L213.053 276.726L224.428 283.293Z" fill="#4F4D4D"/>
<path d="M235.727 276.727L224.428 283.293L213.053 276.726L224.352 270.159L235.727 276.727Z" fill="#929393"/>
<path d="M206.788 277.101L206.784 278.342L195.485 284.909L195.489 283.667L206.788 277.101Z" fill="#686868"/>
<path d="M195.488 283.667L195.485 284.909L184.078 278.323L184.081 277.081L195.488 283.667Z" fill="#4F4D4D"/>
<path d="M206.789 277.101L195.49 283.667L184.082 277.081L195.382 270.515L206.789 277.101Z" fill="#929393"/>
<path d="M220.98 285.295L220.977 286.537L209.678 293.103L209.681 291.862L220.98 285.295Z" fill="#686868"/>
<path d="M209.681 291.862L209.678 293.103L198.303 286.536L198.307 285.295L209.681 291.862Z" fill="#4F4D4D"/>
<path d="M220.981 285.295L209.682 291.862L198.307 285.295L209.607 278.729L220.981 285.295Z" fill="#929393"/>
<path d="M249.953 284.94L249.95 286.182L223.905 301.318L223.908 300.076L249.953 284.94Z" fill="#686868"/>
<path d="M223.908 300.076L223.904 301.317L212.498 294.731L212.502 293.49L223.908 300.076Z" fill="#4F4D4D"/>
<path d="M249.953 284.94L223.909 300.076L212.502 293.491L238.547 278.355L249.953 284.94Z" fill="#929393"/>
<path d="M78.2781 258.964L102.548 244.831C103.444 244.35 104.478 244.35 105.374 244.831L154.19 273.03C154.879 273.444 155.086 274.205 154.741 274.824C154.672 274.478 154.534 274.272 154.19 274.067L105.374 245.865C104.478 245.383 103.444 245.383 102.548 245.865L78.2781 259.93C78.0023 260.068 77.8645 260.277 77.7266 260.553C77.4508 260.001 77.658 259.311 78.2781 258.964Z" fill="#B0AFB0"/>
<path d="M102.548 245.865C103.444 245.383 104.478 245.383 105.374 245.865L154.19 274.067C154.534 274.272 154.673 274.477 154.741 274.824C154.672 275.1 154.466 275.376 154.19 275.514L129.92 289.647C129.093 290.132 127.99 290.132 127.163 289.647L78.3474 261.449C78.003 261.24 77.7266 260.896 77.7266 260.553C77.8644 260.277 78.0023 260.068 78.2781 259.93L102.548 245.865Z" fill="#B9B9BA"/>
</svg>
